<?xml version="1.0" encoding="UTF-8"?>
<svg width="18px" height="22px" viewBox="0 0 18 22" version="1.1" xmlns="http://www.w3.org/2000/svg" xmlns:xlink="http://www.w3.org/1999/xlink">
    <!-- Generator: Sketch 48.1 (47250) - http://www.bohemiancoding.com/sketch -->
    <title>Basket</title>
    <desc>Created with Sketch.</desc>
    <defs></defs>
    <g id="compositions/navigation/desktop" stroke="none" stroke-width="1" fill="none" fill-rule="evenodd" transform="translate(-1503.000000, -49.000000)">
        <g id="elements/icon/bag/white/empty" transform="translate(1496.000000, 44.000000)" fill="#FFFFFF" fill-rule="nonzero">
            <path d="M22.2866666,12.3333333 L21.2390475,12.3333333 L21.2390475,10.2380952 C21.2390475,7.34666667 18.8923808,5 16.0009523,5 C13.1095237,5 10.762857,7.34666667 10.762857,10.2380952 L10.762857,12.3333333 L9.71523798,12.3333333 C8.56285703,12.3333333 7.61999989,13.2761905 7.61999989,14.4285714 L7.61999989,24.9047619 C7.61999989,26.0571429 8.56285703,27 9.71523798,27 L22.2866666,27 C23.4390475,27 24.3819046,26.0571429 24.3819046,24.9047619 L24.3819046,14.4285714 C24.3819046,13.2761905 23.4390475,12.3333333 22.2866666,12.3333333 Z M12.7533332,10.2380952 C12.7533332,8.44666667 14.2095237,6.99047619 16.0009523,6.99047619 C17.7923808,6.99047619 19.2485713,8.44666667 19.2485713,10.2380952 L19.2485713,12.3333333 L12.7533332,12.3333333 L12.7533332,10.2380952 Z M22.2866666,24.9047619 L9.71523798,24.9047619 L9.71523798,14.4285714 L22.2866666,14.4285714 L22.2866666,24.9047619 Z" id="Shape"></path>
        </g>
    </g>
</svg>