<?xml version="1.0" encoding="UTF-8"?>
<svg width="90px" height="92px" viewBox="0 0 90 92" version="1.1" xmlns="http://www.w3.org/2000/svg" xmlns:xlink="http://www.w3.org/1999/xlink">
    <!-- Generator: Sketch 46.2 (44496) - http://www.bohemiancoding.com/sketch -->
    <title>Shape</title>
    <desc>Created with Sketch.</desc>
    <defs></defs>
    <g id="Elements" stroke="none" stroke-width="1" fill="none" fill-rule="evenodd">
        <g id="Artboard" transform="translate(-536.000000, -597.000000)" fill-rule="nonzero" fill="#FFFFFF">
            <g id="Group" transform="translate(535.001969, 596.966530)">
                <path d="M2.77929589,0.03347 C1.8070359,0.14047 0.9922459,1.05547 0.9980459,2.0334701 L0.9980459,86.03347 C0.9981159,87.08047 1.9508659,88.03347 2.99804589,88.03347 L8.9980454,88.03347 L8.9980454,92.03347 L12.9980456,92.03347 L12.9980456,88.03347 L78.998046,88.03347 L78.998046,92.03347 L82.998046,92.03347 L82.998046,88.03347 L88.998046,88.03347 C90.045226,88.03347 90.997976,87.08047 90.998046,86.03347 L90.998046,2.0334701 C90.997976,0.98647 90.045226,0.03347 88.998046,0.03347 C60.263006,0.03347 31.498866,0.03347 2.77929589,0.03347 Z M4.9980459,4.0334701 L86.998046,4.0334701 L86.998046,21.03347 L4.9980459,21.03347 L4.9980459,4.0334701 Z M42.779295,6.0334701 C41.732025,6.0934701 40.831196,7.0954701 40.888465,8.1424701 C40.945765,9.1904701 41.950785,10.0904701 42.998045,10.0334701 L48.998045,10.0334701 C50.053185,10.0434701 51.022005,9.0884701 51.022005,8.0334701 C51.022005,6.9784701 50.053185,6.0204701 48.998045,6.0334701 C46.935865,6.0334701 44.823545,6.0334701 42.779295,6.0334701 Z M4.9980459,25.03347 L86.998046,25.03347 L86.998046,42.03347 L4.9980459,42.03347 L4.9980459,25.03347 Z M42.779295,27.03347 C41.732025,27.09347 40.831196,28.09547 40.888465,29.14247 C40.945765,30.19047 41.950785,31.09047 42.998045,31.03347 L48.998045,31.03347 C50.053185,31.04347 51.022005,30.08847 51.022005,29.03347 C51.022005,27.97847 50.053185,27.02047 48.998045,27.03347 C46.935865,27.03347 44.823545,27.03347 42.779295,27.03347 Z M4.9980459,46.03347 L33.998045,46.03347 L33.998045,84.03347 L4.9980459,84.03347 L4.9980459,46.03347 Z M37.998045,46.03347 L53.998045,46.03347 L53.998045,84.03347 L37.998045,84.03347 L37.998045,46.03347 Z M57.998045,46.03347 L86.998046,46.03347 L86.998046,84.03347 L57.998046,84.03347 L57.998045,46.03347 Z M29.748045,60.00247 C28.776345,60.12447 27.975275,61.05447 27.998045,62.03347 L27.998045,68.03347 C27.985445,69.08847 28.942835,70.05747 29.998045,70.05747 C31.053255,70.05747 32.010605,69.08847 31.998045,68.03347 L31.998045,62.03347 C32.024745,60.88747 30.885515,59.85847 29.748045,60.00247 L29.748045,60.00247 Z M61.748045,60.00247 C60.776345,60.12447 59.975275,61.05447 59.998045,62.03347 L59.998045,68.03347 C59.985445,69.08847 60.942835,70.05747 61.998045,70.05747 C63.053255,70.05747 64.010605,69.08847 63.998045,68.03347 L63.998045,62.03347 C64.024745,60.88747 62.885515,59.85847 61.748045,60.00247 L61.748045,60.00247 Z" id="Shape"></path>
            </g>
        </g>
    </g>
</svg>