<?xml version="1.0" encoding="UTF-8"?>
<svg width="24px" height="22px" viewBox="0 0 24 22" version="1.1" xmlns="http://www.w3.org/2000/svg" xmlns:xlink="http://www.w3.org/1999/xlink">
    <!-- Generator: Sketch 48.1 (47250) - http://www.bohemiancoding.com/sketch -->
    <title>elements/icon/search/black</title>
    <desc>Created with Sketch.</desc>
    <defs>
        <path d="M24.8580064,6.43122095 L24.8132267,6.42614159 C26.6592102,7.94995111 27.6195149,10.0324908 27.6842057,12.5213797 C27.7240076,13.6743956 27.2762007,14.6851892 26.878141,15.4369352 C25.9626057,17.1893142 24.7186794,18.5962983 23.6240254,19.7391554 C21.6835048,21.7962983 19.3946819,23.7162983 16.558527,25.8089968 C16.4092546,25.895346 16.2102248,26.0731238 15.8619327,26.0731238 C15.6131454,26.0731238 15.4141156,26.0020127 15.2150857,25.8496317 C12.0356125,23.5385205 9.59751724,21.4051872 7.53757565,19.1702665 C6.40311571,17.9512189 5.53734301,16.7626475 4.86064694,15.5436019 C3.60179365,13.2782051 3.72618629,10.8502686 5.2188973,8.33090349 C6.28867457,6.54804635 7.8062639,5.45598286 9.7467886,5.1004273 C12.0853699,4.66868127 14.4239543,5.6540781 15.8619327,7.5740781 C16.051007,7.32518921 16.2400813,7.09153841 16.4490667,6.87820508 C17.6034235,5.68963365 19.2304864,5.00899873 20.9072965,5.00899873 C22.3601981,5.00899873 23.7633524,5.51693524 24.8580064,6.43122095 Z M25.4202616,14.6242368 L25.4103061,14.6394749 C25.7088508,14.0401098 26.0372419,13.3239194 26.0073956,12.5772527 C25.9626057,10.591221 25.2262096,9.02169714 23.7533969,7.78233206 C22.9722108,7.10677651 21.9422375,6.75122095 20.8824178,6.75122095 C19.6534146,6.75122095 18.4592457,7.25915746 17.6133791,8.12264953 C17.2153194,8.52899873 16.9018515,9.01153841 16.6033067,9.64645905 C16.4540343,9.93090349 16.1654451,10.1340781 15.8569549,10.1340781 C15.5484648,10.1340781 15.24992,9.96137968 15.1006476,9.67693524 L14.9513753,9.39757016 C14.0955551,7.72137968 12.5779647,6.75630032 10.8712981,6.75630032 C10.5926583,6.75630032 10.3140196,6.78677651 10.0453313,6.83757016 C8.60237717,7.09153841 7.45796473,7.90423683 6.65687673,9.22995111 C5.46270682,11.2261416 5.36319292,12.9683638 6.30857654,14.6953479 C6.905662,15.7924908 7.70177425,16.8693142 8.74667178,17.9867745 C10.63744,20.0591554 12.9262639,22.0401078 15.8619327,24.198838 C18.5438375,22.2178856 20.6236749,20.4248697 22.4447899,18.5353459 C23.4598299,17.4686792 24.6092191,16.1886792 25.4202616,14.6242368 Z" id="path-1"></path>
    </defs>
    <g id="compositions/navigation/desktop" stroke="none" stroke-width="1" fill="none" fill-rule="evenodd" transform="translate(-1404.000000, -49.000000)">
        <g id="elements/icon/heart/white" transform="translate(1400.000000, 44.000000)">
            <mask id="mask-2" fill="white">
                <use xlink:href="#path-1"></use>
            </mask>
            <g id="Clip-2"></g>
            <polygon id="Fill-1" fill="#FFFFFF" fill-rule="evenodd" mask="url(#mask-2)" points="0 32 32 32 32 0 0 0"></polygon>
        </g>
    </g>
</svg>