<?xml version="1.0" encoding="UTF-8"?>
<svg width="87px" height="58px" viewBox="0 0 87 58" version="1.1" xmlns="http://www.w3.org/2000/svg" xmlns:xlink="http://www.w3.org/1999/xlink">
    <!-- Generator: Sketch 46.2 (44496) - http://www.bohemiancoding.com/sketch -->
    <title>Group</title>
    <desc>Created with Sketch.</desc>
    <defs></defs>
    <g id="Elements" stroke="none" stroke-width="1" fill="none" fill-rule="evenodd">
        <g id="Artboard" transform="translate(-1132.000000, -1063.000000)" fill="#FFFFFF">
            <g id="Group" transform="translate(1132.000000, 1063.000000)">
                <path d="M65.761396,17.88671 C65.2091695,17.8867748 64.7615183,18.3344662 64.761456,18.88674 L64.761456,28.62352 C64.7614796,29.1758211 65.2091421,29.6235552 65.761396,29.62362 L79.512207,29.62362 C79.8864349,29.6235916 80.2293321,29.4146098 80.4008991,29.0819986 C80.5724661,28.7493874 80.5439899,28.3488116 80.327097,28.04382 L73.401506,18.30705 C73.2138869,18.0433226 72.9102534,17.8867011 72.586616,17.88671 L65.761396,17.88671 L65.761396,17.88671 Z M66.761346,19.88677 L72.070646,19.88677 L77.573797,27.62352 L66.761346,27.62352 L66.761346,19.88677 L66.761346,19.88677 Z" id="Shape"></path>
                <path d="M6.352016,0.12964 C3.409216,0.12964 0.995766,2.54323 0.995766,5.48621 L0.995766,40.19742 C0.995766,43.14042 3.409226,45.55372 6.352016,45.55372 L13.349196,45.55372 C14.017796,49.25882 17.268146,52.08832 21.166696,52.08832 C25.063156,52.08832 28.316726,49.26082 28.986076,45.55372 L65.539826,45.55372 C66.209376,49.26012 69.465756,52.08832 73.359516,52.08832 C77.253267,52.08832 80.509637,49.26012 81.179197,45.55372 L82.774197,45.55372 C85.096977,45.55372 86.996077,43.64362 86.996077,41.33152 L86.996077,28.53492 C87.0144675,28.3918116 87.0016748,28.2464183 86.958577,28.10872 C86.9526638,28.0881814 86.9460938,28.0678376 86.938877,28.04772 C86.9382103,28.0477193 86.9375437,28.0477193 86.936877,28.04772 C86.9366772,28.0474199 86.9364772,28.0471199 86.936277,28.04682 C86.8911276,27.9201258 86.8208869,27.8038403 86.729757,27.70492 L75.976947,12.7848 C75.7891151,12.5242115 75.4875436,12.3697075 75.166316,12.36949 L61.220696,12.36049 L61.220696,5.49018 C61.220696,2.54723 58.807236,0.13364 55.864446,0.13364 L6.351636,0.13364 L6.352016,0.12964 Z M6.352016,2.12964 L55.864826,2.12964 C57.719636,2.12964 59.221076,3.63104 59.221076,5.48621 L59.221076,43.55372 L29.090456,43.55372 C28.788056,39.44292 25.344386,36.18592 21.166696,36.18592 C16.988936,36.18592 13.545036,39.44292 13.242636,43.55372 L6.352016,43.55372 C4.497206,43.55372 2.995766,42.05262 2.995766,40.19742 L2.995766,5.48621 C2.995766,3.63104 4.497206,2.12964 6.352016,2.12964 L6.352016,2.12964 Z M61.221076,14.35652 L74.653886,14.36552 L84.996077,28.71552 L84.996077,41.33142 C84.996077,42.55272 84.004627,43.55362 82.774197,43.55362 L81.283577,43.55362 C80.981177,39.44282 77.537277,36.18582 73.359516,36.18582 C69.181746,36.18582 65.737836,39.44282 65.435456,43.55362 L61.221076,43.55362 L61.221076,14.35646 L61.221076,14.35652 Z M21.166696,38.18592 C24.459736,38.18592 27.112326,40.83722 27.112326,44.14212 L27.112326,44.25402 C27.052056,47.49432 24.426256,50.08832 21.166696,50.08832 C17.872656,50.08832 15.231006,47.44622 15.221076,44.16212 C15.221076,44.16132 15.221076,44.16212 15.221076,44.16212 L15.221076,44.14512 C15.221076,40.84022 17.873556,38.18892 21.166696,38.18892 L21.166696,38.18592 Z M73.359516,38.18592 C76.652657,38.18592 79.305137,40.83722 79.305137,44.14212 C79.305137,47.43572 76.652657,50.08832 73.359516,50.08832 C70.066366,50.08832 67.413886,47.43572 67.413886,44.14212 C67.413886,40.83712 70.066366,38.18592 73.359516,38.18592 Z" id="Shape"></path>
                <path d="M32.508576,14.14246 C32.1479401,14.1373597 31.8124946,14.3268353 31.6306883,14.6383328 C31.4488819,14.9498304 31.4488819,15.3350896 31.6306883,15.6465872 C31.8124946,15.9580847 32.1479401,16.1475603 32.508576,16.14246 L52.121076,16.14246 C52.4817119,16.1475603 52.8171574,15.9580847 52.9989637,15.6465872 C53.1807701,15.3350896 53.1807701,14.9498304 52.9989637,14.6383328 C52.8171574,14.3268353 52.4817119,14.1373597 52.121076,14.14246 L32.508576,14.14246 L32.508576,14.14246 Z" id="Shape"></path>
                <path d="M23.535456,23.11652 C23.1748201,23.1114197 22.8393746,23.3008953 22.6575683,23.6123928 C22.4757619,23.9238904 22.4757619,24.3091496 22.6575683,24.6206472 C22.8393746,24.9321447 23.1748201,25.1216203 23.535456,25.11652 L52.121076,25.11652 C52.4817119,25.1216203 52.8171574,24.9321447 52.9989637,24.6206472 C53.1807701,24.3091496 53.1807701,23.9238904 52.9989637,23.6123928 C52.8171574,23.3008953 52.4817119,23.1114197 52.121076,23.11652 L23.535456,23.11652 Z" id="Shape"></path>
                <path d="M4.966696,55.87022 C4.60606008,55.8651197 4.27061464,56.0545953 4.08880828,56.3660928 C3.90700192,56.6775904 3.90700192,57.0628496 4.08880828,57.3743472 C4.27061464,57.6858447 4.60606008,57.8753203 4.966696,57.87022 L80.937327,57.87022 C81.2979629,57.8753203 81.6334084,57.6858447 81.8152147,57.3743472 C81.9970211,57.0628496 81.9970211,56.6775904 81.8152147,56.3660928 C81.6334084,56.0545953 81.2979629,55.8651197 80.937327,55.87022 L4.966696,55.87022 Z" id="Shape"></path>
            </g>
        </g>
    </g>
</svg>