<?xml version="1.0" encoding="UTF-8"?>
<svg width="40px" height="40px" viewBox="0 0 40 40" version="1.1" xmlns="http://www.w3.org/2000/svg" xmlns:xlink="http://www.w3.org/1999/xlink">
    <!-- Generator: Sketch 46.2 (44496) - http://www.bohemiancoding.com/sketch -->
    <title>Group 4</title>
    <desc>Created with Sketch.</desc>
    <defs>
        <path d="M9.99966667,12.646825 C6.87729167,12.646825 4.33719167,9.64085 4.33719167,5.94554167 C4.33719167,2.44489167 6.66566667,0 9.99966667,0 C13.3336667,0 15.6621417,2.44489167 15.6621417,5.94554167 C15.6621417,9.64085 13.12205,12.646825 9.99966667,12.646825 Z M9.99966667,1.30865 C7.409,1.30865 5.66813333,3.17185 5.66813333,5.94554167 C5.66813333,8.9188 7.6113,11.3381667 9.99966667,11.3381667 C12.3880333,11.3381667 14.3312,8.919125 14.3312,5.94554167 C14.3312,3.17185 12.5903333,1.30865 9.99966667,1.30865 Z M10.6132333,13.955475 L9.38610833,13.955475 C3.771875,13.955475 0,17.1260167 0,21.8456733 C0,22.2068617 0.298133333,22.5 0.665466667,22.5 C1.03280833,22.5 1.33094167,22.2068617 1.33094167,21.8456733 C1.33094167,16.98795 5.670125,15.2641333 9.38610833,15.2641333 L10.6132333,15.2641333 C14.3295417,15.2641333 18.6690583,16.9882833 18.6690583,21.8456733 C18.6690583,22.2068617 18.9671917,22.5 19.3345333,22.5 C19.7018667,22.5 20,22.2068617 20,21.8456733 C20,17.1260167 16.2277917,13.955475 10.6132333,13.955475 Z" id="path-1"></path>
    </defs>
    <g id="Frontpage" stroke="none" stroke-width="1" fill="none" fill-rule="evenodd">
        <g id="Desktop" transform="translate(-80.000000, -120.000000)">
            <g id="Group-4" transform="translate(80.000000, 120.000000)">
                <circle id="Oval" fill="#009EE0" cx="20" cy="20" r="20"></circle>
                <g id="Page-1" transform="translate(10.000000, 8.333333)">
                    <g id="Group-6">
                        <mask id="mask-2" fill="white">
                            <use xlink:href="#path-1"></use>
                        </mask>
                        <g id="Clip-5"></g>
                        <polygon id="Fill-4" fill="#FFFFFF" mask="url(#mask-2)" points="-4.16666667 26.6666667 24.1666667 26.6666667 24.1666667 -4.16666667 -4.16666667 -4.16666667"></polygon>
                    </g>
                </g>
            </g>
        </g>
    </g>
</svg>