<?xml version="1.0" encoding="UTF-8"?>
<svg width="47px" height="48px" viewBox="0 0 47 48" version="1.1" xmlns="http://www.w3.org/2000/svg" xmlns:xlink="http://www.w3.org/1999/xlink">
    <!-- Generator: Sketch 46.2 (44496) - http://www.bohemiancoding.com/sketch -->
    <title>Group 2</title>
    <desc>Created with Sketch.</desc>
    <defs></defs>
    <g id="Elements" stroke="none" stroke-width="1" fill="none" fill-rule="evenodd">
        <g id="Artboard" transform="translate(-643.000000, -597.000000)" fill-rule="nonzero" fill="#FFFFFF">
            <g id="Group-2" transform="translate(643.000000, 597.000000)">
                <path d="M6.18122449,39.6734694 L23.0204082,47.8628571 C23.3574157,48.026939 23.7511557,48.026939 24.0881633,47.8628571 L40.8440816,39.6734694 C41.260296,39.4685167 41.5241798,39.0451636 41.524898,38.5812245 L41.524898,29.4612245 L45.8546939,26.9387755 C46.4593891,26.5904572 46.8729627,25.9861483 46.9787165,25.2963671 C47.0844702,24.6065859 46.8709362,23.9061321 46.3983673,23.3926531 L41.9265306,18.5436735 L46.1583673,13.4938776 C46.6853566,12.8655096 46.8998846,12.0325121 46.7419777,11.2277578 C46.5840709,10.4230036 46.0706717,9.73283808 45.3453061,9.35020408 L45.3453061,9.35020408 L30.6514286,1.88571429 C30.2602432,1.65255333 29.771741,1.65676225 29.3846312,1.89662896 C28.9975215,2.13649567 28.7762999,2.57205642 28.8109533,3.02613696 C28.8456068,3.4802175 29.1303618,3.8771643 29.5493878,4.0555102 L44.2432653,11.515102 C44.3167858,11.5543675 44.3684634,11.6249325 44.3837086,11.7068753 C44.3989537,11.788818 44.3761122,11.8732472 44.3216327,11.9363265 L40.0065306,17.044898 L33.595102,13.6506122 C33.2090518,13.4354115 32.7367836,13.4459156 32.3606833,13.678068 C31.984583,13.9102204 31.7635163,14.3276854 31.7828571,14.7692419 C31.802198,15.2107983 32.0589193,15.6073355 32.4538776,15.8057143 L37.6457143,18.5534694 L23.4416327,25.6702041 L9.35020408,18.72 L14.5077551,15.8840816 C14.9057845,15.6829231 15.1622766,15.28055 15.1766134,14.8348073 C15.1909503,14.3890645 14.9608454,13.9710405 14.5765653,13.7447199 C14.1922853,13.5183992 13.7151165,13.5198762 13.3322449,13.7485714 L7.11673469,17.1428571 L2.70857143,11.8971429 C2.65596989,11.8342246 2.63428161,11.75107 2.64945234,11.6704755 C2.66462307,11.589881 2.715061,11.5203031 2.78693878,11.4808163 L17.3583673,4.04571429 C17.9357127,3.72751285 18.1557044,3.00812175 17.8550765,2.42143384 C17.5544486,1.83474592 16.8420263,1.59313803 16.2465306,1.87591837 L1.68,9.34040816 L1.68,9.34040816 C0.957819847,9.72507575 0.447781455,10.4150872 0.291884545,11.2183365 C0.135987634,12.0215859 0.350880443,12.852294 0.876734694,13.4791837 L5.09387755,18.5436735 L0.622040816,23.4122449 C0.156996037,23.9252695 -0.0518231503,24.6206943 0.0536802403,25.3050406 C0.159183631,25.9893869 0.567751811,26.5896312 1.16571429,26.9387755 L5.4955102,29.4416327 L5.4955102,38.5567347 C5.48769042,39.0305926 5.75509119,39.4660739 6.18122449,39.6734694 Z M7.92979592,30.8571429 L14.3853061,34.5844898 C15.5123042,35.2382034 16.932066,35.0918769 17.9020408,34.2220408 L17.9412245,34.1877551 L22.3493878,29.9020408 L22.3493878,44.8212245 L7.92979592,37.797551 L7.92979592,30.8571429 Z M39.0906122,37.797551 L24.7787755,44.8163265 L24.7787755,30.0146939 L29.0791837,34.202449 L29.1183673,34.2367347 C30.0883422,35.1065708 31.508104,35.2528972 32.635102,34.5991837 L39.0906122,30.8571429 L39.0906122,37.797551 Z M40.0310204,20.0816327 L44.4881633,24.9355102 L31.4155102,32.4881633 C31.2047068,32.6097249 30.9403425,32.5862258 30.7542857,32.4293878 L25.5330612,27.3502041 L40.0310204,20.0816327 Z M6.85714286,20.2138776 L21.4432653,27.3893878 L16.2661224,32.4342857 C16.0800657,32.5911238 15.8157014,32.6146228 15.604898,32.4930612 L2.5322449,24.9355102 L6.85714286,20.2138776 Z" id="Shape"></path>
                <path d="M23.4612245,0 C22.7876625,-1.63134812e-16 22.2416327,0.546029864 22.2416327,1.21959184 L22.2416327,13.9102041 L18.9159184,10.5844898 C18.4361403,10.1309597 17.6825781,10.141554 17.2157396,10.6083926 C16.748901,11.0752312 16.7383066,11.8287934 17.1918367,12.3085714 L22.5795918,17.6963265 C23.055794,18.1721525 23.8274713,18.1721525 24.3036735,17.6963265 L29.6914286,12.3085714 C30.0140101,12.0036378 30.1454384,11.5475159 30.0345732,11.1176877 C29.923708,10.6878595 29.5880589,10.3522104 29.1582307,10.2413452 C28.7284025,10.1304799 28.2722805,10.2619082 27.9673469,10.5844898 L24.6759184,13.9102041 L24.6759184,1.22938776 C24.6785259,0.905085137 24.5518578,0.593099176 24.3239166,0.362400651 C24.0959754,0.131702127 23.785535,0.00129197986 23.4612245,0 Z" id="Shape"></path>
            </g>
        </g>
    </g>
</svg>