<?xml version="1.0" encoding="UTF-8"?>
<svg width="32px" height="32px" viewBox="0 0 32 32" version="1.1" xmlns="http://www.w3.org/2000/svg" xmlns:xlink="http://www.w3.org/1999/xlink">
    <defs>
        <path d="M19.60156,17.678444 C20.13267,18.209556 20.13267,19.0706667 19.60156,19.6015556 C19.33622,19.8671111 18.988,20 18.64,20 C18.292,20 17.94378,19.8671111 17.67844,19.6015556 L13.66533,15.588444 C12.16289,16.679333 10.38822,17.225778 8.612889,17.225778 C6.408667,17.225778 4.204444,16.384889 2.522667,14.703111 C-0.8408889,11.339556 -0.8408889,5.88622 2.522667,2.52267 C4.204444,0.84089 6.408667,0 8.612889,0 C10.81711,0 13.02133,0.84089 14.70311,2.52244 C17.73956,5.55889 18.034,10.297556 15.58844,13.665333 L19.60156,17.678444 Z M3.868889,13.356889 C5.136222,14.624 6.820889,15.322 8.612889,15.322 C10.40489,15.322 12.08978,14.624 13.35689,13.356889 C15.97267,10.741111 15.97267,6.48467 13.35689,3.86889 C12.08978,2.60156 10.40489,1.90378 8.612889,1.90378 C6.820889,1.90378 5.136,2.60178 3.868889,3.86889 C1.253111,6.48467 1.253111,10.741111 3.868889,13.356889 Z" id="path-1"></path>
    </defs>
    <g id="Symbols" stroke="none" stroke-width="1" fill="none" fill-rule="evenodd">
        <g id="elements/icon/search/black">
            <g id="Loop" transform="translate(6.000000, 6.000000)">
                <mask id="mask-2" fill="white">
                    <use xlink:href="#path-1"></use>
                </mask>
                <g id="Clip-2"></g>
                <polygon id="Fill-1" fill="#333333" mask="url(#mask-2)" points="-5 25 24.99989 25 24.99989 -5 -5 -5"></polygon>
            </g>
        </g>
    </g>
</svg>