<?xml version="1.0" encoding="UTF-8"?>
<svg width="112px" height="32px" viewBox="0 0 112 32" version="1.1" xmlns="http://www.w3.org/2000/svg" xmlns:xlink="http://www.w3.org/1999/xlink">
    <!-- Generator: Sketch 46.2 (44496) - http://www.bohemiancoding.com/sketch -->
    <title>elements/logo</title>
    <desc>Created with Sketch.</desc>
    <defs></defs>
    <g id="Symbols" stroke="none" stroke-width="1" fill="none" fill-rule="evenodd">
        <g id="compositions/header" transform="translate(-64.000000, -44.000000)" fill="#FFFFFE">
            <g id="elements/logo" transform="translate(64.000000, 44.000000)">
                <g id="Group">
                    <path d="M17.838914,21.168 C17.7958371,18.9344 16.7949321,17.9002667 13.1845792,17.9002667 L9.61780995,17.9002667 L9.61780995,24.9301333 C10.5741176,24.9717333 11.2704434,24.9717333 12.3144253,24.9717333 C16.1857738,24.9717333 17.838914,24.3925333 17.838914,21.6229333 L17.838914,21.168 Z M17.7522534,9.01066667 C17.7522534,6.44693333 16.0119457,6.03306667 12.3144253,6.03306667 C11.3571041,6.03306667 10.6177014,6.03306667 9.61780995,6.07413333 L9.61780995,12.5669333 L13.0979186,12.5669333 C16.9251765,12.5669333 17.7522534,11.4917333 17.7522534,9.30026667 L17.7522534,9.01066667 Z M11.1923982,30.8842667 C7.58204525,30.8842667 0,30.8842667 0,30.8842667 L0,0.1616 C0,0.1616 7.93020814,0.1616 11.2795656,0.1616 C21.5891403,0.1616 27.3310407,1.44373333 27.3310407,8.55626667 L27.3310407,8.92693333 C27.3310407,11.5738667 26.3306425,13.8896 23.8078552,15.1717333 C26.591638,16.4122667 27.5053756,19.0165333 27.5053756,21.2917333 L27.5053756,21.7050667 C27.5053756,29.7269333 21.0240724,30.8842667 11.1923982,30.8842667 L11.1923982,30.8842667 Z" id="Fill-1"></path>
                    <polygon id="Fill-2" points="45.4238552 30.8842667 55.0583891 30.8842667 55.0583891 0.1472 45.4238552 0.1472"></polygon>
                    <polygon id="Fill-3" points="31.3453032 30.8848 40.9798371 30.8848 40.9798371 12.5189333 31.3453032 12.5189333"></polygon>
                    <polyline id="Fill-4" points="75.8797466 30.8842667 69.0548416 19.8602667 69.0548416 30.8842667 59.4654118 30.8842667 59.4654118 0.1472 69.0548416 0.1472 69.0548416 17.1050667 76.1022262 6.37813333 86.0489412 6.37813333 78.1096109 18.2074667 86.4508235 30.8842667 75.8797466 30.8842667"></polyline>
                    <path d="M102.289955,20.4544 L100.237973,20.4544 C97.5170317,20.4544 96.2678009,20.7509333 96.2678009,23.1258667 L96.2678009,24.0154667 C96.2678009,25.6698667 97.2053575,26.1354667 98.5883801,26.1354667 C100.104688,26.1354667 101.576398,25.5845333 102.289955,25.2458667 L102.289955,20.4544 Z M102.780018,30.8842667 L102.780018,29.3157333 C101.040724,30.4186667 97.9635113,31.5210667 94.6622986,31.5210667 C89.8006878,31.5210667 87.169448,29.0613333 87.169448,24.5248 L87.169448,23.5072 C87.169448,16.8928 92.7441086,16.2992 100.149285,16.2992 L101.843475,16.2992 L101.843475,15.0698667 C101.843475,12.568 101.264724,12.0592 97.7400181,12.0592 C95.6890498,12.0592 92.1207602,12.1866667 89.175819,12.4832 L89.175819,7.35306667 C90.960724,6.80213333 95.376362,5.74186667 99.9708959,5.74186667 C107.775421,5.74186667 111.523113,8.03146667 111.523113,15.0698667 L111.523113,30.8842667 L102.780018,30.8842667 L102.780018,30.8842667 Z" id="Fill-5"></path>
                    <polygon id="Fill-6" points="31.3453032 9.0032 40.9798371 9.0032 40.9798371 0.1472 31.3453032 0.1472"></polygon>
                </g>
            </g>
        </g>
    </g>
</svg>